<svg width="106" height="160" viewBox="0 0 106 160" fill="none" xmlns="http://www.w3.org/2000/svg">
<path d="M88.8961 0H56.3739C54.1154 0 52.3086 1.84014 52.3086 4.14031V32.7545C52.941 32.7545 53.5733 32.6625 54.1154 32.6625C64.6851 32.6625 73.2674 41.4031 73.2674 52.1679C73.2674 52.812 73.2674 53.456 73.177 54.1001H101.363C103.621 54.1001 105.428 52.2599 105.428 49.9598V4.14031C105.428 1.84014 103.621 0 101.363 0H88.8961Z" fill="#196FDE"/>
<path d="M101.361 0H81.4863V20.1495C81.4863 22.4497 83.2931 24.2898 85.5516 24.2898H105.426V4.14031C105.426 1.84014 103.62 0 101.361 0Z" fill="#4293FC"/>
<path d="M102.355 99.4595L84.4675 99.7355C81.8476 99.7355 81.3959 101.484 81.3056 102.496V103.14V110.132C81.2153 124.025 68.5677 135.342 52.939 135.342C37.3102 135.342 24.6627 124.025 24.6627 110.132V84.2783H54.2037V71.7654C46.0732 71.7654 39.117 66.521 36.3165 59.2525H24.753V20.7936C24.753 18.5854 23.0366 16.8373 20.8684 16.8373H3.8846C1.71645 16.8373 0 18.5854 0 20.7936V103.6C0 111.052 1.17441 118.137 3.61358 124.669C11.2021 145.279 29.27 158.896 50.5901 160C50.8612 160 51.5839 160 52.4873 160C58.4497 160 75.9756 158.804 89.7072 145.371C100.096 135.25 105.517 120.989 105.968 103.048C105.968 101.024 104.342 99.3675 102.355 99.3675V99.4595Z" fill="#4293FC"/>
</svg>
