<svg width="28" height="26" viewBox="0 0 28 26" fill="none" xmlns="http://www.w3.org/2000/svg">
<path d="M17.7183 9.57132C18.4003 9.57132 19.0543 9.84224 19.5366 10.3245C20.0188 10.8067 20.2897 11.4608 20.2897 12.1428V19.2845C20.2897 20.9518 19.6274 22.5509 18.4484 23.7299C17.2693 24.909 15.6703 25.5713 14.0029 25.5713C12.3355 25.5713 10.7364 24.909 9.55739 23.7299C8.37838 22.5509 7.71602 20.9518 7.71602 19.2845V12.1428C7.71602 11.4608 7.98693 10.8067 8.46917 10.3245C8.95141 9.84224 9.60546 9.57132 10.2874 9.57132H17.7183ZM17.7183 11.2856H10.2874C10.0601 11.2856 9.8421 11.3759 9.68135 11.5367C9.52061 11.6974 9.4303 11.9154 9.4303 12.1428V19.2845C9.4303 20.4972 9.91205 21.6602 10.7696 22.5178C11.6271 23.3753 12.7902 23.857 14.0029 23.857C15.2156 23.857 16.3786 23.3753 17.2362 22.5178C18.0937 21.6602 18.5754 20.4972 18.5754 19.2845V12.1428C18.5754 11.9154 18.4851 11.6974 18.3244 11.5367C18.1636 11.3759 17.9456 11.2856 17.7183 11.2856ZM2.85659 9.57132H7.6063C7.14733 10.049 6.82489 10.641 6.67259 11.2856H2.85659C2.62926 11.2856 2.41124 11.3759 2.25049 11.5367C2.08975 11.6974 1.99944 11.9154 1.99944 12.1428V18.1416C1.99899 18.7152 2.14243 19.2796 2.41662 19.7834C2.69082 20.2871 3.087 20.7141 3.56891 21.0251C4.05081 21.3361 4.60303 21.5212 5.17501 21.5635C5.74699 21.6058 6.32044 21.504 6.84287 21.2673C6.99487 21.8273 7.21316 22.3599 7.48744 22.8582C6.70446 23.2004 5.84855 23.342 4.99706 23.2704C4.14557 23.1988 3.32535 22.9162 2.6105 22.4481C1.89565 21.9799 1.30871 21.3411 0.902721 20.5892C0.49673 19.8373 0.284483 18.9961 0.285158 18.1416V12.1428C0.285158 11.4608 0.556075 10.8067 1.03831 10.3245C1.52055 9.84224 2.1746 9.57132 2.85659 9.57132ZM25.1423 9.57132C25.8243 9.57132 26.4783 9.84224 26.9606 10.3245C27.4428 10.8067 27.7137 11.4608 27.7137 12.1428V18.1428C27.7141 18.9967 27.5018 19.8372 27.096 20.5885C26.6903 21.3399 26.1039 21.9784 25.3896 22.4464C24.6754 22.9144 23.8559 23.1972 23.0051 23.2693C22.1542 23.3414 21.2988 23.2005 20.516 22.8593L20.58 22.7428C20.8246 22.2788 21.0223 21.7862 21.164 21.2696C21.6862 21.5046 22.2589 21.605 22.8298 21.5618C23.4008 21.5185 23.9518 21.333 24.4326 21.022C24.9134 20.7111 25.3087 20.2847 25.5824 19.7818C25.8561 19.2788 25.9995 18.7153 25.9994 18.1428V12.1428C25.9994 11.9156 25.9093 11.6978 25.7488 11.5371C25.5883 11.3764 25.3706 11.2859 25.1434 11.2856H21.3343C21.1817 10.6408 20.8588 10.0488 20.3994 9.57132H25.1423ZM13.9994 0.428467C14.5247 0.428467 15.0449 0.53193 15.5302 0.732949C16.0155 0.933967 16.4564 1.22861 16.8279 1.60004C17.1993 1.97147 17.4939 2.41243 17.695 2.89773C17.896 3.38304 17.9994 3.90318 17.9994 4.42847C17.9994 4.95375 17.896 5.4739 17.695 5.9592C17.4939 6.4445 17.1993 6.88546 16.8279 7.25689C16.4564 7.62833 16.0155 7.92297 15.5302 8.12399C15.0449 8.325 14.5247 8.42847 13.9994 8.42847C12.9386 8.42847 11.9212 8.00704 11.171 7.25689C10.4209 6.50675 9.99944 5.48933 9.99944 4.42847C9.99944 3.3676 10.4209 2.35019 11.171 1.60004C11.9212 0.849894 12.9386 0.428467 13.9994 0.428467ZM23.1457 1.57132C23.596 1.57132 24.0418 1.66001 24.4578 1.83231C24.8738 2.00461 25.2517 2.25716 25.5701 2.57553C25.8885 2.8939 26.141 3.27186 26.3133 3.68784C26.4856 4.10381 26.5743 4.54965 26.5743 4.9999C26.5743 5.45014 26.4856 5.89598 26.3133 6.31195C26.141 6.72793 25.8885 7.10589 25.5701 7.42426C25.2517 7.74263 24.8738 7.99518 24.4578 8.16748C24.0418 8.33978 23.596 8.42847 23.1457 8.42847C22.2364 8.42847 21.3643 8.06724 20.7214 7.42426C20.0784 6.78128 19.7172 5.90921 19.7172 4.9999C19.7172 4.09058 20.0784 3.21851 20.7214 2.57553C21.3643 1.93255 22.2364 1.57132 23.1457 1.57132ZM4.85316 1.57132C5.3034 1.57132 5.74924 1.66001 6.16522 1.83231C6.58119 2.00461 6.95915 2.25716 7.27752 2.57553C7.5959 2.8939 7.84844 3.27186 8.02075 3.68784C8.19305 4.10381 8.28173 4.54965 8.28173 4.9999C8.28173 5.45014 8.19305 5.89598 8.02075 6.31195C7.84844 6.72793 7.5959 7.10589 7.27752 7.42426C6.95915 7.74263 6.58119 7.99518 6.16522 8.16748C5.74924 8.33978 5.3034 8.42847 4.85316 8.42847C3.94384 8.42847 3.07177 8.06724 2.42879 7.42426C1.78581 6.78128 1.42459 5.90921 1.42459 4.9999C1.42459 4.09058 1.78581 3.21851 2.42879 2.57553C3.07177 1.93255 3.94384 1.57132 4.85316 1.57132ZM13.9994 2.14275C13.3932 2.14275 12.8119 2.38357 12.3832 2.81222C11.9545 3.24088 11.7137 3.82226 11.7137 4.42847C11.7137 5.03468 11.9545 5.61606 12.3832 6.04471C12.8119 6.47337 13.3932 6.71418 13.9994 6.71418C14.6057 6.71418 15.187 6.47337 15.6157 6.04471C16.0443 5.61606 16.2852 5.03468 16.2852 4.42847C16.2852 3.82226 16.0443 3.24088 15.6157 2.81222C15.187 2.38357 14.6057 2.14275 13.9994 2.14275ZM23.1457 3.28561C22.9206 3.28561 22.6977 3.32995 22.4897 3.4161C22.2817 3.50225 22.0927 3.62853 21.9335 3.78771C21.7744 3.9469 21.6481 4.13588 21.5619 4.34387C21.4758 4.55185 21.4314 4.77477 21.4314 4.9999C21.4314 5.22502 21.4758 5.44794 21.5619 5.65592C21.6481 5.86391 21.7744 6.05289 21.9335 6.21208C22.0927 6.37126 22.2817 6.49754 22.4897 6.58369C22.6977 6.66984 22.9206 6.71418 23.1457 6.71418C23.6004 6.71418 24.0364 6.53357 24.3579 6.21208C24.6794 5.89059 24.86 5.45455 24.86 4.9999C24.86 4.54524 24.6794 4.1092 24.3579 3.78771C24.0364 3.46622 23.6004 3.28561 23.1457 3.28561ZM4.85316 3.28561C4.62804 3.28561 4.40512 3.32995 4.19713 3.4161C3.98914 3.50225 3.80016 3.62853 3.64097 3.78771C3.48179 3.9469 3.35552 4.13588 3.26936 4.34387C3.18321 4.55185 3.13887 4.77477 3.13887 4.9999C3.13887 5.22502 3.18321 5.44794 3.26936 5.65592C3.35552 5.86391 3.48179 6.05289 3.64097 6.21208C3.80016 6.37126 3.98914 6.49754 4.19713 6.58369C4.40512 6.66984 4.62804 6.71418 4.85316 6.71418C5.30782 6.71418 5.74385 6.53357 6.06534 6.21208C6.38683 5.89059 6.56744 5.45455 6.56744 4.9999C6.56744 4.54524 6.38683 4.1092 6.06534 3.78771C5.74385 3.46622 5.30782 3.28561 4.85316 3.28561Z" fill="#05408E"/>
</svg>
