<svg width="26" height="24" viewBox="0 0 26 24" fill="none" xmlns="http://www.w3.org/2000/svg">
<path fill-rule="evenodd" clip-rule="evenodd" d="M13 19.5107L18.4065 22.31C18.6198 22.4203 18.8562 22.4787 19.0964 22.4803C19.3366 22.4818 19.5738 22.4266 19.7886 22.3191L24.3478 20.0395C24.6009 19.913 24.8138 19.7186 24.9626 19.478C25.1114 19.2374 25.1903 18.9601 25.1905 18.6772V14.4654C25.1903 14.1825 25.1114 13.9052 24.9626 13.6646C24.8138 13.424 24.6009 13.2296 24.3478 13.1031L19.0952 10.4761L13.8229 13.2067C13.5749 13.3352 13.367 13.5294 13.2218 13.768C13.0767 14.0067 13 14.2806 13 14.5599V19.5107Z" stroke="#05408E" stroke-width="1.5" stroke-linecap="round" stroke-linejoin="round"/>
<path fill-rule="evenodd" clip-rule="evenodd" d="M1.63145 19.9359L6.21507 22.31C6.42842 22.4204 6.66483 22.4787 6.90502 22.4803C7.14521 22.4819 7.38237 22.4267 7.59717 22.3192L12.9991 19.619V14.4655C12.9989 14.1826 12.92 13.9053 12.7712 13.6647C12.6224 13.4241 12.4095 13.2296 12.1564 13.1032L6.90383 10.4761L1.63145 13.2068C1.38346 13.3353 1.17555 13.5294 1.03043 13.7681C0.885311 14.0067 0.808571 14.2806 0.808594 14.5599V18.5828C0.808571 18.8621 0.885311 19.136 1.03043 19.3747C1.17555 19.6133 1.38346 19.8075 1.63145 19.9359ZM6.90383 10.3679L12.3103 13.1672C12.5237 13.2775 12.7601 13.3359 13.0003 13.3375C13.2405 13.339 13.4776 13.2838 13.6924 13.1763L19.0943 10.4761V5.32261C19.0942 5.03969 19.0152 4.76241 18.8664 4.52181C18.7176 4.2812 18.5047 4.08678 18.2516 3.96032L13.6924 1.6807C13.4776 1.57319 13.2405 1.51798 13.0003 1.51956C12.7601 1.52115 12.5237 1.5795 12.3103 1.68984L7.72669 4.06394C7.4787 4.19242 7.27078 4.38658 7.12567 4.62522C6.98055 4.86386 6.90381 5.13779 6.90383 5.41708V10.3679Z" stroke="#05408E" stroke-width="1.5" stroke-linecap="round" stroke-linejoin="round"/>
<path d="M7.43118 4.64453L12.318 7.0872C12.5295 7.19289 12.7627 7.24791 12.9992 7.24791C13.2356 7.24791 13.4688 7.19289 13.6803 7.0872L18.5154 4.67044M13.5264 13.7874L18.4133 16.2301C18.6248 16.3357 18.858 16.3908 19.0944 16.3908C19.3309 16.3908 19.5641 16.3357 19.7756 16.2301L24.6091 13.8133M1.33594 13.7874L6.22279 16.2301C6.4343 16.3357 6.6675 16.3908 6.90394 16.3908C7.14038 16.3908 7.37358 16.3357 7.58508 16.2301L12.4186 13.8133M12.9992 7.42853V13.5238M19.0944 16.5714V21.9047M6.90394 16.5714V21.9047" stroke="#05408E" stroke-width="1.5" stroke-linecap="round" stroke-linejoin="round"/>
</svg>
