<svg width="32" height="32" viewBox="0 0 32 32" fill="none" xmlns="http://www.w3.org/2000/svg">
<path d="M1 31H31M5.57333 12.32L27 2.58667M27 2.58667L25.4133 6.84M27 2.58667L22.76 1M8 21.6667H4C3.73586 21.6701 3.48351 21.7766 3.29671 21.9634C3.10992 22.1502 3.00345 22.4025 3 22.6667V31H9V22.6667C8.99655 22.4025 8.89008 22.1502 8.70329 21.9634C8.5165 21.7766 8.26414 21.6701 8 21.6667ZM18 16.3333H14C13.7359 16.3368 13.4835 16.4433 13.2967 16.63C13.1099 16.8168 13.0035 17.0692 13 17.3333V31H19V17.3333C18.9965 17.0692 18.8901 16.8168 18.7033 16.63C18.5165 16.4433 18.2641 16.3368 18 16.3333ZM28 11H24C23.7359 11.0035 23.4835 11.1099 23.2967 11.2967C23.1099 11.4835 23.0035 11.7359 23 12V31H29V12C28.9965 11.7359 28.8901 11.4835 28.7033 11.2967C28.5165 11.1099 28.2641 11.0035 28 11Z" stroke="#05408E" stroke-width="1.5" stroke-linecap="round" stroke-linejoin="round"/>
</svg>
