<svg width="26" height="30" viewBox="0 0 26 30" fill="none" xmlns="http://www.w3.org/2000/svg">
<path d="M20.9993 20.3335L23.4527 22.4482C24.4833 23.3375 24.9993 23.7815 24.9993 24.3335C24.9993 24.8855 24.4833 25.3295 23.4527 26.2188L20.9993 28.3335M15.666 20.3335L13.2127 22.4482C12.182 23.3375 11.666 23.7815 11.666 24.3335C11.666 24.8855 12.182 25.3295 13.2127 26.2188L15.666 28.3335" stroke="#05408E" stroke-width="1.5" stroke-linecap="round" stroke-linejoin="round"/>
<path d="M23.6667 16.3374V9.42675C23.6667 7.16808 23.6667 6.04008 23.3093 5.13741C22.736 3.68808 21.52 2.54408 19.98 2.00408C19.0227 1.66675 17.8227 1.66675 15.424 1.66675C11.2267 1.66675 9.128 1.66675 7.45067 2.25475C4.75733 3.20141 2.63067 5.20275 1.624 7.74008C1 9.32008 1 11.2947 1 15.2467V18.6414C1 22.7347 1 24.7814 2.13067 26.2041C2.45467 26.6107 2.83733 26.9721 3.27067 27.2774C4.48667 28.1347 6.13333 28.3014 9 28.3334" stroke="#05408E" stroke-width="1.5" stroke-linecap="round" stroke-linejoin="round"/>
<path d="M1 15.0001C1 13.8215 1.46821 12.6911 2.30162 11.8577C3.13503 11.0243 4.26538 10.5561 5.444 10.5561C6.332 10.5561 7.37867 10.7107 8.24133 10.4801C8.61828 10.3786 8.96193 10.1799 9.23784 9.90374C9.51374 9.6276 9.71221 9.28378 9.81333 8.90675C10.044 8.04408 9.88933 6.99741 9.88933 6.10941C9.88969 4.93102 10.358 3.80102 11.1914 2.96789C12.0248 2.13477 13.1549 1.66675 14.3333 1.66675" stroke="#05408E" stroke-width="1.5" stroke-linecap="round" stroke-linejoin="round"/>
</svg>
