<svg width="18" height="18" viewBox="0 0 18 18" fill="none" xmlns="http://www.w3.org/2000/svg">
<path d="M9.60598 0.740414C9.42199 0.632624 9.21261 0.575806 8.99938 0.575806C8.78614 0.575806 8.57676 0.632624 8.39278 0.740414L1.18078 4.96441C1.00023 5.07053 0.850601 5.22204 0.746754 5.4039C0.642906 5.58576 0.588458 5.79163 0.588822 6.00105C0.589186 6.21047 0.644349 6.41614 0.748828 6.59764C0.853308 6.77914 1.00347 6.93013 1.18438 7.03561L8.39518 11.238C8.5786 11.3449 8.78709 11.4012 8.99938 11.4012C9.21167 11.4012 9.42016 11.3449 9.60358 11.238L16.8144 7.03561C16.9954 6.93 17.1457 6.77879 17.2502 6.59705C17.3546 6.41531 17.4096 6.20938 17.4098 5.99976C17.4099 5.79014 17.3551 5.58414 17.2508 5.40228C17.1466 5.22042 16.9965 5.06904 16.8156 4.96321L9.60598 0.740414ZM8.39278 2.13121C8.57662 2.02365 8.78578 1.96696 8.99878 1.96696C9.21177 1.96696 9.42094 2.02365 9.60478 2.13121L16.2096 5.99881L9.60358 9.84961C9.42016 9.9565 9.21167 10.0128 8.99938 10.0128C8.78709 10.0128 8.5786 9.9565 8.39518 9.84961L1.78798 5.99881L8.39278 2.13121ZM0.683979 8.58001L8.40958 12.9276C8.58912 13.0285 8.79162 13.0815 8.99758 13.0815C9.20354 13.0815 9.40604 13.0285 9.58558 12.9276L17.3112 8.58001C17.4273 8.84935 17.4407 9.1519 17.349 9.43048C17.2572 9.70906 17.0666 9.94439 16.8132 10.092L9.60118 14.2944C9.4179 14.4011 9.20963 14.4573 8.99758 14.4573C8.78552 14.4573 8.57725 14.4011 8.39398 14.2944L1.18198 10.092C0.928531 9.94439 0.737924 9.70906 0.646168 9.43048C0.554413 9.1519 0.567863 8.84935 0.683979 8.58001ZM0.683979 11.5236L8.40958 15.87C8.58912 15.9709 8.79162 16.0239 8.99758 16.0239C9.20354 16.0239 9.40604 15.9709 9.58558 15.87L17.3112 11.5236C17.4273 11.793 17.4407 12.0955 17.349 12.3741C17.2572 12.6527 17.0666 12.888 16.8132 13.0356L9.60118 17.238C9.4179 17.3447 9.20963 17.4009 8.99758 17.4009C8.78552 17.4009 8.57725 17.3447 8.39398 17.238L1.18198 13.0356C0.928531 12.888 0.737924 12.6527 0.646168 12.3741C0.554413 12.0955 0.567863 11.793 0.683979 11.5236Z" fill="#05408E"/>
</svg>
