<svg width="24" height="24" viewBox="0 0 24 24" fill="none" xmlns="http://www.w3.org/2000/svg">
<path d="M12 8C16.9706 8 21 6.65685 21 5C21 3.34315 16.9706 2 12 2C7.02944 2 3 3.34315 3 5C3 6.65685 7.02944 8 12 8Z" stroke="#05408E" stroke-width="1.5" stroke-linecap="round" stroke-linejoin="round"/>
<path d="M3.00007 5V19C2.9945 19.4809 3.33587 19.9552 3.9954 20.383C4.65493 20.8107 5.61329 21.1793 6.7897 21.4577C7.96611 21.7361 9.32608 21.9162 10.755 21.9827C12.1839 22.0493 13.6398 22.0003 15.0001 21.84M21.0001 5V8M21.0001 12L18.0001 17H22.0001L19.0001 22" stroke="#05408E" stroke-width="1.5" stroke-linecap="round" stroke-linejoin="round"/>
<path d="M3 12C3.00145 12.4675 3.33069 12.9285 3.96146 13.3461C4.59222 13.7636 5.50706 14.1263 6.63296 14.4051C7.75887 14.6839 9.06468 14.8711 10.4462 14.9519C11.8277 15.0326 13.2467 15.0045 14.59 14.87" stroke="#05408E" stroke-width="1.5" stroke-linecap="round" stroke-linejoin="round"/>
</svg>
