<svg width="28" height="25" viewBox="0 0 28 25" fill="none" xmlns="http://www.w3.org/2000/svg">
<path d="M13.6036 23.5893C13.7778 23.5893 13.9565 23.5502 14.1396 23.4719C14.3227 23.3937 14.4707 23.2982 14.5836 23.1853L24.9782 12.7893C25.3134 12.4542 25.572 12.1119 25.7542 11.7626C25.9356 11.4115 26.0262 11.0266 26.0262 10.6079C26.0262 10.1839 25.9356 9.77239 25.7542 9.37328C25.572 8.97328 25.3134 8.60883 24.9782 8.27994L19.9782 3.27994C19.6485 2.94483 19.3094 2.69905 18.9609 2.54261C18.6134 2.38617 18.2276 2.30794 17.8036 2.30794C17.3849 2.30794 16.996 2.38617 16.6369 2.54261C16.2778 2.69905 15.9396 2.94439 15.6222 3.27861L14.4596 4.44128L16.9262 6.91461C17.1911 7.17505 17.3889 7.47105 17.5196 7.80261C17.6494 8.13417 17.7142 8.47061 17.7142 8.81194C17.7142 9.50617 17.4871 10.0804 17.0329 10.5346C16.5787 10.9888 16.0049 11.2155 15.3116 11.2146C14.9694 11.2146 14.6356 11.1626 14.3102 11.0586C13.9849 10.9546 13.692 10.7724 13.4316 10.5119L11.4702 8.55994C11.3165 8.40617 11.12 8.32928 10.8809 8.32928C10.6409 8.32928 10.444 8.40617 10.2902 8.55994L5.12358 13.7266C4.98935 13.8617 4.88846 14.0151 4.82091 14.1866C4.75335 14.3582 4.71958 14.5315 4.71958 14.7066C4.71958 15.0213 4.82046 15.2804 5.02224 15.4839C5.22313 15.6884 5.48091 15.7906 5.79558 15.7906C5.9698 15.7906 6.14847 15.7515 6.33158 15.6733C6.51469 15.5942 6.66269 15.4982 6.77558 15.3853L10.5289 11.6319C10.6534 11.5075 10.8054 11.4395 10.9849 11.4279C11.1645 11.4164 11.3271 11.4844 11.4729 11.6319C11.6151 11.7742 11.6862 11.9315 11.6862 12.1039C11.6862 12.2764 11.6151 12.4337 11.4729 12.5759L7.72624 16.3293C7.59113 16.4644 7.4898 16.6177 7.42224 16.7893C7.35558 16.9617 7.32224 17.1351 7.32224 17.3093C7.32224 17.6071 7.42713 17.8608 7.63691 18.0706C7.84669 18.2804 8.10046 18.3857 8.39824 18.3866C8.57246 18.3866 8.75113 18.3471 8.93424 18.2679C9.11735 18.1888 9.26535 18.0933 9.37824 17.9813L13.4396 13.9279C13.564 13.8026 13.7156 13.7342 13.8942 13.7226C14.0729 13.7111 14.2356 13.7791 14.3822 13.9266C14.5245 14.0688 14.5956 14.2262 14.5956 14.3986C14.5956 14.5711 14.5245 14.7284 14.3822 14.8706L10.3289 18.9319C10.2116 19.0448 10.1147 19.1928 10.0382 19.3759C9.9618 19.5591 9.92358 19.7377 9.92358 19.9119C9.92358 20.2088 10.0289 20.4622 10.2396 20.6719C10.4502 20.8835 10.704 20.9893 11.0009 20.9893C11.1751 20.9893 11.3485 20.9555 11.5209 20.8879C11.6934 20.8204 11.8462 20.7191 11.9796 20.5839L16.0422 16.5306C16.1667 16.4053 16.3182 16.3368 16.4969 16.3253C16.6756 16.3146 16.8387 16.3826 16.9862 16.5293C17.1276 16.6715 17.1982 16.8288 17.1982 17.0013C17.1982 17.1737 17.1271 17.3311 16.9849 17.4733L12.9249 21.5333C12.7907 21.6684 12.6898 21.8306 12.6222 22.0199C12.5547 22.2093 12.5209 22.3822 12.5209 22.5386C12.5209 22.8533 12.6316 23.1071 12.8529 23.2999C13.0742 23.4928 13.3249 23.5893 13.6049 23.5893M13.5969 24.9226C12.9116 24.9226 12.3249 24.6719 11.8369 24.1706C11.3489 23.6693 11.1347 23.0497 11.1942 22.3119C10.4387 22.3208 9.8098 22.0955 9.30758 21.6359C8.80535 21.1764 8.56669 20.5346 8.59158 19.7106C7.76846 19.7195 7.11958 19.4839 6.64491 19.0039C6.17024 18.5239 5.95424 17.8919 5.99691 17.1079C5.25558 17.1168 4.63513 16.9079 4.13558 16.4813C3.63691 16.0564 3.38758 15.4644 3.38758 14.7053C3.38758 14.3631 3.4538 14.0208 3.58624 13.6786C3.71869 13.3355 3.91424 13.0342 4.17291 12.7746L9.36624 7.58128C9.77513 7.17328 10.2791 6.96928 10.8782 6.96928C11.4774 6.96928 11.9814 7.17372 12.3902 7.58261L14.3249 9.51728C14.4378 9.6355 14.5774 9.73283 14.7436 9.80928C14.9098 9.88572 15.0969 9.9235 15.3049 9.92261C15.5902 9.92261 15.8422 9.82305 16.0609 9.62394C16.2796 9.42483 16.3894 9.16528 16.3902 8.84528C16.3902 8.63728 16.352 8.45061 16.2756 8.28528C16.1991 8.11905 16.1022 7.9795 15.9849 7.86661L11.3982 3.27994C11.0676 2.94483 10.724 2.69905 10.3676 2.54261C10.0111 2.38617 9.62091 2.30794 9.19691 2.30794C8.77824 2.30794 8.3978 2.38617 8.05558 2.54261C7.71424 2.69905 7.37602 2.94483 7.04091 3.27994L2.98091 7.34661C2.51513 7.8115 2.21558 8.37905 2.08224 9.04928C1.94891 9.7195 2.0098 10.3595 2.26491 10.9693C2.31469 11.1417 2.29246 11.3084 2.19824 11.4693C2.10402 11.6302 1.97069 11.7324 1.79824 11.7759C1.6258 11.8195 1.45469 11.7964 1.28491 11.7066C1.11513 11.6168 1.00846 11.4848 0.964909 11.3106C0.677798 10.4484 0.615131 9.57772 0.776909 8.69861C0.938687 7.8195 1.35646 7.04305 2.03024 6.36928L6.06224 2.33594C6.52713 1.8755 7.01913 1.53328 7.53824 1.30928C8.05735 1.08617 8.61869 0.974609 9.22224 0.974609C9.8258 0.974609 10.3822 1.08661 10.8916 1.31061C11.4018 1.53372 11.8871 1.8755 12.3476 2.33594L13.5076 3.49728L14.6702 2.33594C15.1351 1.8755 15.6227 1.53328 16.1329 1.30928C16.6431 1.08617 17.2 0.974609 17.8036 0.974609C18.4071 0.974609 18.9685 1.08661 19.4876 1.31061C20.0058 1.53372 20.4947 1.8755 20.9542 2.33594L25.9222 7.30261C26.3818 7.76217 26.7365 8.27816 26.9862 8.85061C27.236 9.42305 27.3605 10.0111 27.3596 10.6146C27.3596 11.2191 27.2351 11.7759 26.9862 12.2853C26.7374 12.7946 26.3827 13.2799 25.9222 13.7413L15.5262 24.1279C15.2498 24.4053 14.9485 24.6071 14.6222 24.7333C14.2969 24.8595 13.956 24.9226 13.5969 24.9226Z" fill="#05408E"/>
</svg>
